<svg viewBox="0 0 1000 1004.1441" xmlns="http://www.w3.org/2000/svg"><path d="m42 187.144h916c12 0 21-9 21-20s-9-21-21-21h-916c-12 0-21 9-21 21s9 20 21 20zm583 250c8 0 15-4 19-11s2-16-2-22l-125-167c-8-10-26-10-34 0l-125 167c-4 6-5 15-2 22 4 7 11 11 19 11h104v125h-104c-8 0-15 5-19 12-3 7-2 15 2 22l125 166c4 6 11 9 17 9s13-3 17-9l125-166c4-7 5-15 2-22-4-7-11-12-19-12h-104v-125zm-125 278-83-111h166zm0-430 83 111h-166zm458 527h-916c-12 0-21 10-21 21s9 21 21 21h916c12 0 21-9 21-21s-9-21-21-21z"/></svg>